<svg xmlns="http://www.w3.org/2000/svg" viewBox="0 0 340 80" role="img" aria-labelledby="title desc">
  <title id="title">Flight Snap</title>
  <desc id="desc">Flight Snap logo with a plane icon in a rounded square</desc>
  <defs>
    <linearGradient id="fsGradient" x1="0%" y1="0%" x2="100%" y2="100%">
      <stop offset="0%" stop-color="#2E8CFF" />
      <stop offset="100%" stop-color="#0454FF" />
    </linearGradient>
  </defs>
  <g fill="none" fill-rule="evenodd">
    <rect x="0" y="0" width="80" height="80" rx="18" fill="url(#fsGradient)" />
    <path fill="#FFFFFF" d="M12 39.5c5.9-1.5 12.3-1.9 18.5-1.2l9.7-14.3c.8-1.2 2.3-1.6 3.5-.9 1.2.7 1.7 2.2 1.2 3.4l-4.7 11.1 11.7 1.6c1.4.2 2.4 1.4 2.4 2.8s-1 2.6-2.4 2.8l-11.7 1.6 4.7 11.1c.5 1.3 0 2.7-1.2 3.4a2.7 2.7 0 0 1-3.5-.9l-9.7-14.3c-6.2.7-12.6.3-18.5-1.2-1.4-.3-2.2-1.5-2.2-2.8s.9-2.5 2.2-2.8Z" />
    <path fill="#8DB7FF" d="M12 17h12v6H12zM56 17h12v6H56zM12 57h12v6H12zM56 57h12v6H56z" opacity=".65" />
    <text x="104" y="51" font-family="'Inter', 'Helvetica Neue', Arial, sans-serif" font-size="36" font-weight="600" fill="#0F1B3D" letter-spacing="-0.5">
      Flight <tspan fill="#1B4DFF">Snap</tspan>
    </text>
  </g>
</svg>
